<?xml version="1.0" encoding="UTF-8" standalone="no"?>
<!-- Created with Inkscape (http://www.inkscape.org/) -->

<svg
   xmlns:dc="http://purl.org/dc/elements/1.1/"
   xmlns:cc="http://creativecommons.org/ns#"
   xmlns:rdf="http://www.w3.org/1999/02/22-rdf-syntax-ns#"
   xmlns:svg="http://www.w3.org/2000/svg"
   xmlns="http://www.w3.org/2000/svg"
   xmlns:sodipodi="http://sodipodi.sourceforge.net/DTD/sodipodi-0.dtd"
   xmlns:inkscape="http://www.inkscape.org/namespaces/inkscape"
   width="300"
   height="300"
   viewBox="0 0 300.00001 300.00001"
   id="svg2"
   version="1.1"
   inkscape:version="0.91 r13725"
   sodipodi:docname="md-email-logo-blue.svg">
  <defs
     id="defs4" />
  <sodipodi:namedview
     id="base"
     pagecolor="#ffffff"
     bordercolor="#666666"
     borderopacity="1.0"
     inkscape:pageopacity="0.0"
     inkscape:pageshadow="2"
     inkscape:zoom="0.73359932"
     inkscape:cx="-309.09932"
     inkscape:cy="-9.8516467"
     inkscape:document-units="px"
     inkscape:current-layer="layer1"
     showgrid="false"
     units="px"
     showguides="true"
     inkscape:guide-bbox="true"
     inkscape:window-width="1680"
     inkscape:window-height="987"
     inkscape:window-x="-8"
     inkscape:window-y="22"
     inkscape:window-maximized="1" />
  <metadata
     id="metadata7">
    <rdf:RDF>
      <cc:Work
         rdf:about="">
        <dc:format>image/svg+xml</dc:format>
        <dc:type
           rdf:resource="http://purl.org/dc/dcmitype/StillImage" />
        <dc:title></dc:title>
      </cc:Work>
    </rdf:RDF>
  </metadata>
  <g
     inkscape:label="Layer 1"
     inkscape:groupmode="layer"
     id="layer1"
     transform="translate(0,-752.36208)">
    <rect
       style="opacity:1;fill:#005caf;fill-opacity:1;fill-rule:nonzero;stroke:none;stroke-width:5;stroke-linecap:butt;stroke-linejoin:round;stroke-miterlimit:4;stroke-dasharray:none;stroke-dashoffset:0;stroke-opacity:1"
       id="rect4140"
       width="300"
       height="300"
       x="0"
       y="752.36206"
       ry="1.9809498" />
    <path
       style="color:#000000;font-style:normal;font-variant:normal;font-weight:normal;font-stretch:normal;font-size:medium;line-height:normal;font-family:sans-serif;text-indent:0;text-align:start;text-decoration:none;text-decoration-line:none;text-decoration-style:solid;text-decoration-color:#000000;letter-spacing:normal;word-spacing:normal;text-transform:none;direction:ltr;block-progression:tb;writing-mode:lr-tb;baseline-shift:baseline;text-anchor:start;white-space:normal;clip-rule:nonzero;display:inline;overflow:visible;visibility:visible;opacity:1;isolation:auto;mix-blend-mode:normal;color-interpolation:sRGB;color-interpolation-filters:linearRGB;solid-color:#000000;solid-opacity:1;fill:#ffffff;fill-opacity:1;fill-rule:nonzero;stroke:none;stroke-width:5;stroke-linecap:round;stroke-linejoin:round;stroke-miterlimit:4;stroke-dasharray:none;stroke-dashoffset:0;stroke-opacity:1;color-rendering:auto;image-rendering:auto;shape-rendering:auto;text-rendering:auto;enable-background:accumulate"
       d="m 150.11177,784.69336 a 2.6992488,2.8697291 0 0 0 -1.36214,0.37437 l -25.29239,15.2327 -60.06704,0 c -2.927451,0 -5.368439,2.59517 -5.368439,5.7075 l 0,33.7025 -36.809433,22.17092 a 2.6992488,2.8697291 0 0 0 -1.368467,2.4749 l -0.942534,137.06735 a 2.6992488,2.8697291 0 0 0 0,0.021 c 0,10.2474 7.843541,18.5864 17.482215,18.5864 l 227.232938,0 c 9.63868,0 17.48221,-8.339 17.48221,-18.5864 l 0,-137.29164 a 2.6992488,2.8697291 0 0 0 -1.3769,-2.5018 l -37.74353,-22.5296 0,-33.11291 c 0,-3.11233 -2.44098,-5.70751 -5.36844,-5.70751 l -59.67484,0 -25.53276,-15.23941 a 2.6992488,2.8697291 0 0 0 -1.29045,-0.36765 z m -0.0232,6.16258 15.82276,9.44449 -31.50425,0 15.68149,-9.44449 z m -86.668852,15.18338 173.160592,0 0,86.77597 -86.18811,68.85988 -86.972482,-68.12235 0,-87.5135 z m 178.558542,39.66331 30.66293,18.3039 -30.66293,24.49786 0,-42.80176 z m -183.9565,0.60302 0,43.01922 -31.046691,-24.31852 31.046691,-18.7007 z m 217.67897,22.43322 0,132.70723 c 0,7.1675 -5.34267,12.8474 -12.08426,12.8474 l -227.232929,0 c -6.741571,0 -12.084257,-5.6799 -12.084257,-12.8474 L 25.199658,870.743 148.80656,967.56201 a 2.6992488,2.8697291 0 0 0 3.22192,-0.0158 l 123.67225,-98.80734 z"
       id="rect4136"
       inkscape:connector-curvature="0" />
    <flowRoot
       xml:space="preserve"
       id="flowRoot4139"
       style="font-style:normal;font-variant:normal;font-weight:normal;font-stretch:normal;font-size:35px;line-height:125%;font-family:Lato;-inkscape-font-specification:Lato;letter-spacing:0px;word-spacing:0px;opacity:0.5;fill:#005caf;fill-opacity:1;stroke:none;stroke-width:1px;stroke-linecap:butt;stroke-linejoin:miter;stroke-opacity:1"
       transform="matrix(2.4373564,0,0,2.4373564,-148.55696,538.89183)"><flowRegion
         id="flowRegion4141"><rect
           id="rect4143"
           width="81.930389"
           height="42.892967"
           x="111.32894"
           y="114.93372"
           style="font-size:35px;fill:#005caf;fill-opacity:1" /></flowRegion><flowPara
         id="flowPara4145"
         style="font-style:italic;font-variant:normal;font-weight:bold;font-stretch:normal;font-size:35px;font-family:Aleo;-inkscape-font-specification:'Aleo Bold Italic';fill:#005caf;fill-opacity:1" /></flowRoot>    <g
       transform="matrix(1.0840154,0,0,1.0840154,103.38697,842.81057)"
       style="font-style:normal;font-variant:normal;font-weight:normal;font-stretch:normal;font-size:85.30747223px;line-height:125%;font-family:Lato;-inkscape-font-specification:Lato;letter-spacing:0px;word-spacing:0px;fill:#005caf;fill-opacity:1;stroke:none;stroke-width:1px;stroke-linecap:butt;stroke-linejoin:miter;stroke-opacity:1"
       id="flowRoot4139-9">
      <path
         d="m 84.285484,7.6778181 c 1.450227,-0.3412299 2.303302,-1.1943046 2.473917,-2.6445316 l 0.597152,-5.03314091113 -6.398061,0 -8.701362,0 c -0.511845,0 -1.023689,0.0853074711 -1.364919,0.0853074711 -0.34123,0 -0.68246,0.08530747 -1.02369,0.17061495 -0.34123,0.0853075 -0.597152,0.34122988 -0.853075,0.5971523 C 68.759524,1.1091427 68.418294,1.4503726 68.162372,1.87691 L 45.726506,35.999899 c -0.597152,0.938382 -1.194304,1.791457 -1.706149,2.815146 -0.597152,1.02369 -1.108997,2.04738 -1.620842,3.071069 -0.255922,-1.023689 -0.597152,-2.047379 -0.853075,-2.985761 -0.255922,-0.938382 -0.597152,-1.876764 -0.938382,-2.815147 L 26.36171,1.87691 C 26.191095,1.4503726 26.02048,1.1091427 25.764558,0.85322031 25.508636,0.59729789 25.252713,0.34137548 24.996791,0.25606801 c -0.255923,-0.0853075 -0.68246,-0.17061495 -1.02369,-0.17061495 -0.34123,0 -0.767767,-0.0853074711 -1.279612,-0.0853074711 l -8.616055,0 -6.4833676,0 L 6.9969141,5.0332865 c -0.170615,1.450227 0.4265373,2.3033017 1.7914569,2.6445316 0.085308,0 0.2559224,0 0.5118448,0.085308 0.2559224,0 0.5971523,0.1706149 1.1943042,0.2559224 0.597153,0.085308 1.450227,0.2559224 2.473917,0.4265373 L 7.5087589,53.232008 c -1.1089971,0.170615 -1.9620719,0.34123 -2.5592242,0.426538 -0.5971523,0.08531 -1.1089971,0.170615 -1.3649195,0.255922 -0.2559224,0 -0.4265374,0.08531 -0.5118449,0.08531 -1.450227,0.341229 -2.3033017,1.194304 -2.47391665,2.644531 l -0.5971523,5.033141 6.48336785,0 10.0662818,0 7.677672,0 0.68246,-5.033141 c 0.170615,-1.450227 -0.511845,-2.303302 -1.876764,-2.644531 -0.170615,0 -1.962072,-0.255923 -5.459678,-0.767768 l 3.924143,-31.39315 c 0.08531,-0.767767 0.08531,-1.620841 0.170615,-2.473916 0.08531,-0.938382 0.170615,-1.791457 0.170615,-2.729839 l 14.587578,35.061371 c 0.34123,0.767767 0.767767,1.450227 1.36492,1.876764 0.597152,0.426538 1.364919,0.68246 2.303301,0.68246 l 1.620842,0 c 0.938382,0 1.70615,-0.255922 2.473917,-0.68246 0.767767,-0.426537 1.36492,-1.108997 1.876764,-1.876764 L 69.015446,16.72041 c -0.170615,0.938382 -0.34123,1.876765 -0.511844,2.729839 -0.170615,0.853075 -0.255923,1.620842 -0.34123,2.388609 l -3.924144,31.39315 c -3.582914,0.511845 -5.459678,0.767768 -5.630293,0.767768 -1.450227,0.341229 -2.303302,1.194304 -2.473917,2.644531 l -0.597152,5.033141 7.677672,0 10.151589,0 6.398061,0 0.68246,-5.033141 c 0.170615,-1.450227 -0.426538,-2.303302 -1.791457,-2.644531 -0.08531,0 -0.34123,-0.08531 -0.597153,-0.08531 -0.255922,0 -0.597152,-0.170615 -1.194304,-0.255922 -0.597152,-0.08531 -1.450227,-0.255923 -2.473917,-0.426538 L 79.849495,8.4455853 c 1.108997,-0.1706149 2.04738,-0.3412298 2.644532,-0.4265373 0.597152,-0.085307 1.02369,-0.2559224 1.279612,-0.2559224 0.255922,0 0.426537,-0.085308 0.511845,-0.085308 z"
         style="font-style:italic;font-variant:normal;font-weight:bold;font-stretch:normal;font-size:85.30747223px;font-family:Aleo;-inkscape-font-specification:'Aleo Bold Italic';fill:#ffffff;fill-opacity:1"
         id="path4199"
         inkscape:connector-curvature="0" />
    </g>
  </g>
</svg>
